Coordinates
version=1
nRows=13
nColumns=40
inDegrees=yes

Units are S.I. units (second, meters, Newtons, ...)
Angles are in degrees.

endheader
time	pelvis_tilt	pelvis_list	pelvis_rotation	pelvis_tx	pelvis_ty	pelvis_tz	hip_flexion_r	hip_adduction_r	hip_rotation_r	knee_angle_r	knee_angle_r_beta	ankle_angle_r	subtalar_angle_r	mtp_angle_r	hip_flexion_l	hip_adduction_l	hip_rotation_l	knee_angle_l	knee_angle_l_beta	ankle_angle_l	subtalar_angle_l	mtp_angle_l	lumbar_extension	lumbar_bending	lumbar_rotation	arm_flex_r	arm_add_r	arm_rot_r	elbow_flex_r	pro_sup_r	wrist_flex_r	wrist_dev_r	arm_flex_l	arm_add_l	arm_rot_l	elbow_flex_l	pro_sup_l	wrist_flex_l	wrist_dev_l
      1.55000000	     -2.73682270	      2.75290435	     -3.67595560	      0.64518809	      0.94387816	      1.06523982	     -3.99038731	     -2.71751368	    -18.44588960	    -14.95976434	     -0.26109714	     12.24938259	      1.89557006	    -13.75838215	     24.24927836	      2.65889479	     26.51118708	     -5.06824675	     -0.08845759	     -2.38104116	     -1.64753463	     10.53090269	     -0.06130620	     -5.65834687	     12.59114704	     12.65193935	    -16.07632656	    -12.05432400	     30.66820184	     89.95437384	      0.00000000	      0.00000000	    -19.05655238	      9.03851499	     17.34753488	      9.54254946	     89.95437384	      0.00000000	      0.00000000
      1.56000000	     -2.80271064	      2.71617736	     -3.80548506	      0.65485298	      0.94198107	      1.06491761	     -4.47097230	     -2.80045726	    -18.51806009	    -15.20414356	     -0.26536237	     12.26987188	      1.80738985	    -13.62645073	     24.69836538	      2.72227966	     26.30367318	     -5.33842092	     -0.09317302	     -2.38483942	     -1.55605212	     10.38243696	      0.11263566	     -5.64570601	     12.84855861	     12.78766015	    -16.03780016	    -12.03008060	     30.83209068	     89.95437384	      0.00000000	      0.00000000	    -19.24128195	      9.12605776	     17.36004910	      9.61171074	     89.95437384	      0.00000000	      0.00000000
      1.57000000	     -2.45874391	      2.82672155	     -3.89344516	      0.66449856	      0.94075658	      1.06424131	     -5.43924971	     -3.22238029	    -19.22222562	    -15.41336583	     -0.26901398	     12.90607165	      3.25685730	    -14.71798866	     24.79714480	      2.66005989	     26.47965087	     -6.06955719	     -0.10593376	     -2.73375376	     -1.49230583	      9.03166909	     -0.26593076	     -5.84513979	     13.01694949	     13.24783096	    -15.88283700	    -12.52466366	     30.57088673	     89.95437384	      0.00000000	      0.00000000	    -18.75788973	      9.09628321	     19.36589766	      8.96944565	     89.95437384	      0.00000000	      0.00000000
      1.58000000	     -2.43925552	      2.87247022	     -4.07786983	      0.67441440	      0.93897433	      1.06366646	     -6.01646966	     -3.44750889	    -19.27052029	    -15.62865904	     -0.27277156	     13.07896595	      3.09540145	    -14.57510385	     25.11631497	      2.69264294	     26.03449435	     -6.85566582	     -0.11965394	     -2.79615232	     -1.20764384	      8.87116540	     -0.16288369	     -5.91889951	     13.37484061	     13.33266381	    -15.83870107	    -12.55884687	     30.53977923	     89.95437384	      0.00000000	      0.00000000	    -18.70626722	      9.22031117	     19.24547314	      8.90239287	     89.95437384	      0.00000000	      0.00000000
      1.59000000	     -2.19513255	      2.91087431	     -3.96863340	      0.68449816	      0.93765251	      1.06249415	     -6.94160909	     -3.68391790	    -19.53311639	    -15.78391256	     -0.27548124	     13.20992100	      3.60599459	    -14.72073318	     25.30218122	      2.58384914	     25.28457866	     -8.11407117	     -0.14161726	     -2.48252296	     -0.04592904	      8.41786753	     -0.37178977	     -5.98999230	     13.42845196	     13.54351770	    -15.56499454	    -13.53487333	     30.39951721	     89.95437384	      0.00000000	      0.00000000	    -18.34639418	      9.34092066	     19.25143415	      8.50633954	     89.95437384	      0.00000000	      0.00000000
      1.60000000	     -2.05560172	      3.01411423	     -3.96406995	      0.69478916	      0.93617492	      1.06112788	     -7.66097042	     -4.03519899	    -19.68986185	    -16.11783393	     -0.28130927	     13.45284250	      3.62896461	    -14.68644933	     25.40103934	      2.43250056	     24.67447419	     -9.12648759	     -0.15928726	     -2.44534059	      0.58493113	      8.18669607	     -0.38250608	     -6.09715994	     13.57471214	     13.58905640	    -15.42691407	    -13.79229528	     30.24726707	     89.95437384	      0.00000000	      0.00000000	    -18.06969848	      9.42484161	     19.21997137	      8.27698839	     89.95437384	      0.00000000	      0.00000000
      1.61000000	     -2.02313645	      3.09982308	     -4.01100735	      0.70536130	      0.93459599	      1.05996331	     -8.26185351	     -4.36064334	    -19.89334368	    -16.43030531	     -0.28676292	     13.48932155	      3.56977803	    -14.55627902	     25.44631113	      2.29132588	     24.11477967	    -10.00445886	     -0.17461075	     -2.24848824	      1.05653854	      7.97968767	     -0.23236296	     -6.20302706	     13.80538697	     13.49336562	    -15.28396557	    -13.94562083	     30.14350430	     89.95437384	      0.00000000	      0.00000000	    -17.89561727	      9.56463649	     19.19145411	      8.22534996	     89.95437384	      0.00000000	      0.00000000
      1.62000000	     -1.67640786	      3.32953918	     -3.83979332	      0.71634139	      0.93355210	      1.05782947	     -9.26420095	     -5.03219815	    -20.83559446	    -16.79950834	     -0.29320673	     13.41899594	      4.98084582	    -14.90893450	     25.00109146	      1.63972119	     22.64083644	    -10.71479799	     -0.18700850	     -1.51541428	      3.12085072	      7.69291644	     -0.46194560	     -6.45361590	     13.66956778	     13.45150548	    -14.99004475	    -14.49541704	     30.08964668	     89.95437384	      0.00000000	      0.00000000	    -17.54197639	      9.60870706	     19.61660854	      7.95315695	     89.95437384	      0.00000000	      0.00000000
      1.63000000	     -1.84108200	      3.30508772	     -3.84532244	      0.72721877	      0.93179283	      1.05603998	     -9.54895659	     -5.24439280	    -20.55913151	    -17.36593147	     -0.30309268	     13.11857880	      4.77706707	    -14.59978576	     25.02015999	      1.54500497	     22.18587980	    -11.34021153	     -0.19792403	     -1.59104790	      3.10399337	      7.53347221	     -0.06286426	     -6.36849003	     13.76552714	     13.13366343	    -14.87231222	    -14.41355884	     30.20591877	     89.95437384	      0.00000000	      0.00000000	    -17.59599692	      9.64635489	     19.56426177	      8.42192816	     89.95437384	      0.00000000	      0.00000000
      1.64000000	     -1.26583855	      4.02505454	     -3.77156606	      0.73863587	      0.93126899	      1.05333197	    -10.66176507	     -6.70909926	    -22.25188277	    -18.09574907	     -0.31583040	     13.32149320	      6.79946147	    -15.44905976	     24.04795405	      0.27076237	     20.84599546	    -11.68673260	     -0.20397196	     -1.24133337	      5.71186508	      7.40383133	     -0.47272728	     -7.16257964	     13.71159293	     13.21545132	    -14.58300387	    -14.77019538	     29.61184835	     89.95437384	      0.00000000	      0.00000000	    -16.97148278	      9.71024880	     20.75969944	      7.87615271	     89.95437384	      0.00000000	      0.00000000
      1.65000000	     -1.16268279	      4.17578885	     -3.79674503	      0.74990821	      0.93011899	      1.05123123	    -11.24019304	     -7.21902356	    -22.35565728	    -18.68733342	     -0.32615550	     12.98757618	      6.64204596	    -15.29078541	     23.81422665	      0.04593794	     21.02938058	    -12.49930354	     -0.21815400	     -2.08632072	      5.97642956	      7.39989929	     -0.33581403	     -7.27620901	     13.74877840	     13.06436755	    -14.37958352	    -14.74236158	     29.33487733	     89.95437384	      0.00000000	      0.00000000	    -16.76284554	      9.76502752	     20.68218230	      7.91258477	     89.95437384	      0.00000000	      0.00000000
      1.66000000	     -0.98560007	      4.33790977	     -3.80393964	      0.76122949	      0.92937749	      1.04910831	    -11.92110105	     -7.74619615	    -22.54410678	    -19.20849208	     -0.33525143	     12.62936879	      6.58912740	    -15.14928175	     23.49725917	     -0.05286562	     21.83541135	    -13.09413949	     -0.22853585	     -4.46807333	      6.50474906	      7.74995608	     -0.27564228	     -7.42465206	     13.80483982	     12.79269695	    -14.19233751	    -14.60560865	     29.03181388	     89.95437384	      0.00000000	      0.00000000	    -16.48146730	      9.82232474	     20.76106599	      8.02848515	     89.95437384	      0.00000000	      0.00000000
      1.67000000	     -0.47191994	      5.34019848	     -4.05698100	      0.77299303	      0.92938735	      1.04645009	    -12.66895674	     -9.64298984	    -23.38621557	    -20.41039165	     -0.35622854	     12.05593563	      8.35759406	    -15.77978317	     22.36735760	     -1.20138546	     22.45190212	    -12.60915360	     -0.22007125	     -6.78403865	      6.34748108	      6.55693819	     -0.51351124	     -8.50104479	     13.89604088	     12.77776603	    -13.78650092	    -14.71231903	     28.50956774	     89.95437384	      0.00000000	      0.00000000	    -16.10974154	      9.81725684	     22.16231999	      8.08356325	     89.95437384	      0.00000000	      0.00000000
